<svg width="139" height="74" viewBox="0 0 139 74" fill="none" xmlns="http://www.w3.org/2000/svg">
<g id="Group 3">
<g id="Group 2">
<path id="Vector 4" d="M52.1739 5.34552C67.7763 15.9675 71.8061 49.5108 71.8061 49.5108C71.8061 49.5108 24.7675 59.412 9.88335 39.9939C1.29763 28.7929 1.17564 4.92006 1.17564 4.92006C1.17564 4.92006 35.7103 -5.86279 52.1739 5.34552Z" fill="#59E031"/>
<path id="Vector 3" d="M52.4365 6.4381C68.5689 17.4041 72.9999 52.4283 72.9999 52.4283C72.9999 52.4283 24.7229 63.1871 9.25339 43.0212C0.330063 31.3888 -0.0001297 6.4381 -0.0001297 6.4381C-0.0001297 6.4381 35.4136 -5.13323 52.4365 6.4381Z" fill="#6EE014"/>
<path id="Vector 5" d="M72.4999 52.2953C57.9999 35.7953 42.9999 28.7953 28.9999 25.2953" stroke="#B4F077"/>
</g>
<g id="Group 1">
<path id="Vector 4_2" d="M86.8261 22.3455C71.2237 32.9675 67.1939 66.5108 67.1939 66.5108C67.1939 66.5108 114.232 76.412 129.117 56.9939C137.702 45.7929 137.824 21.9201 137.824 21.9201C137.824 21.9201 103.29 11.1372 86.8261 22.3455Z" fill="#11C869"/>
<path id="Vector 1" d="M86.8261 26.3455C71.2237 36.9675 67.1939 70.5108 67.1939 70.5108C67.1939 70.5108 114.232 80.412 129.117 60.9939C137.702 49.7929 137.824 25.9201 137.824 25.9201C137.824 25.9201 103.29 15.1372 86.8261 26.3455Z" fill="#06B85B"/>
<path id="Vector 3_2" d="M86.5635 23.4381C70.4311 34.4041 66.0001 69.4283 66.0001 69.4283C66.0001 69.4283 114.277 80.1871 129.747 60.0212C138.67 48.3888 139 23.4381 139 23.4381C139 23.4381 103.586 11.8668 86.5635 23.4381Z" fill="#22E07E"/>
<path id="Vector 5_2" d="M66.5001 69.2953C81.0001 52.7953 96.0001 45.7953 110 42.2953" stroke="#61FFAE"/>
</g>
</g>
</svg>
